<?xml version="1.0" encoding="utf-8"?>
<!-- Generator: Adobe Illustrator 23.0.5, SVG Export Plug-In . SVG Version: 6.00 Build 0)  -->
<svg version="1.1" id="Слой_1" xmlns="http://www.w3.org/2000/svg" xmlns:xlink="http://www.w3.org/1999/xlink" x="0px" y="0px"
	 viewBox="0 0 2000 1861" style="enable-background:new 0 0 2000 1861;" xml:space="preserve">
<style type="text/css">
	.st0{fill:#232020;}
	.st1{fill:#FECA05;}
</style>
<g>
	<g>
		<path class="st0" d="M1000.1,1715.8c-294.1,0-588.3,0-882.4,0c-13.7,0-27.2-1.9-40.2-6.7c-34.1-12.8-48.2-43-36-77.3
			c5.7-16,15.3-29.9,23.7-44.4c121.2-209.9,242.5-419.8,363.7-629.7C553.5,742,678.2,526.4,802.7,310.8
			c44.9-77.6,89.7-155.3,134.5-233c6.9-12,15.6-22.4,27.3-30c25.3-16.4,54.1-13,77.1,9c7.1,6.8,13,14.7,18,23.2
			c92.8,159.8,185.6,319.7,278.4,479.5c130.2,224.3,260.5,448.6,390.8,672.9c74.6,128.5,149.2,256.9,223.8,385.4
			c6.5,11.2,11.2,23.1,11.7,36.2c0.9,23.5-10,40.1-30.1,51.1c-14.2,7.8-29.7,10.5-45.8,10.5
			C1592.4,1715.8,1296.2,1715.8,1000.1,1715.8z M133.6,1628.8c579,0,1157.1,0,1736,0c-288.7-490-577-979.4-865.7-1469.6
			C713.5,649.4,423.7,1138.8,133.6,1628.8z"/>
		<path class="st1" d="M133.6,1628.8c290.1-490,580-979.4,870.3-1469.6c288.7,490.1,577.1,979.6,865.7,1469.6
			C1290.7,1628.8,712.6,1628.8,133.6,1628.8z M740.9,1143.4c47.7,0,95.3,0,143,0.1c3.7,0,4.9-0.8,5.3-4.8
			c3.2-35.4,18.2-64.4,47.5-85.2c3.2-2.3,3.4-3.7,1.3-6.9c-51.1-79.2-102.2-158.4-153.1-237.7c-2.6-4-4.1-4.5-8.2-1.8
			C712.4,849,664.1,905,631.4,974.2c-24.5,51.7-37.3,106.3-38.3,163.6c-0.1,4.6,1.2,5.8,5.8,5.8
			C646.2,1143.3,693.5,1143.4,740.9,1143.4z M1001.1,1554.2c13.7,0.1,27.3-0.7,40.9-2c53.5-5.2,103.9-20.6,151.2-46.3
			c3.4-1.8,3.8-3.2,1.9-6.7c-23.5-42.9-46.9-85.9-70.3-128.8c-22-40.3-43.9-80.7-65.9-121c-1.1-2-1.5-4.1-5-2.4
			c-32.5,16.4-65.4,15.9-98.3,1.5c-3.7-1.6-5.1-1.4-7.1,2.2c-45.6,83.7-91.4,167.3-137.3,250.9c-1.9,3.4-1.1,4.6,2.1,6.3
			C872.2,1539,934.8,1554,1001.1,1554.2z M1263.3,1143.4c47.5,0,95-0.1,142.5,0.1c4.4,0,5.5-1.1,5.5-5.5
			c-0.6-43.9-8.3-86.5-23.3-127.6c-31.1-85.2-84-153.3-160-203.2c-4.2-2.8-6-2.3-8.7,1.9c-26.3,41.3-52.9,82.4-79.4,123.5
			c-24.5,38.1-49.1,76.1-73.5,114.2c-1,1.6-3.6,3-0.1,5.5c30,20.8,45.7,49.9,49,85.9c0.4,4.5,2,5.2,6.1,5.2
			C1168.7,1143.4,1216,1143.4,1263.3,1143.4z M1002.2,1221.2c42,0,75.8-33.6,75.9-75.4c0.1-42-34.1-75.8-76.6-75.8
			c-41,0-75.6,34.8-75.3,75.7C926.5,1187.6,960.4,1221.2,1002.2,1221.2z"/>
		<path class="st0" d="M740.9,1143.4c-47.3,0-94.7-0.1-142,0.1c-4.6,0-5.9-1.1-5.8-5.8c1.1-57.3,13.8-111.9,38.3-163.6
			c32.8-69.2,81-125.2,145.3-167.1c4-2.6,5.6-2.2,8.2,1.8c50.9,79.3,102,158.5,153.1,237.7c2.1,3.2,1.9,4.6-1.3,6.9
			c-29.3,20.8-44.3,49.8-47.5,85.2c-0.4,4.1-1.6,4.9-5.3,4.8C836.2,1143.4,788.5,1143.4,740.9,1143.4z"/>
		<path class="st0" d="M1001.1,1554.2c-66.3-0.3-128.9-15.2-187.6-46.2c-3.2-1.7-3.9-2.8-2.1-6.3c45.9-83.6,91.6-167.2,137.3-250.9
			c2-3.6,3.4-3.8,7.1-2.2c32.9,14.4,65.8,14.9,98.3-1.5c3.5-1.8,3.9,0.4,5,2.4c22,40.3,43.9,80.6,65.9,121
			c23.4,43,46.7,85.9,70.3,128.8c1.9,3.4,1.5,4.8-1.9,6.7c-47.3,25.7-97.7,41-151.2,46.3C1028.4,1553.5,1014.8,1554.3,1001.1,1554.2
			z"/>
		<path class="st0" d="M1263.3,1143.4c-47.3,0-94.7-0.1-142,0.1c-4.1,0-5.7-0.8-6.1-5.2c-3.3-36-19-65.1-49-85.9
			c-3.5-2.4-0.9-3.9,0.1-5.5c24.5-38.1,49-76.2,73.5-114.2c26.5-41.1,53.1-82.3,79.4-123.5c2.7-4.2,4.4-4.7,8.7-1.9
			c76,49.9,128.9,118,160,203.2c15,41.2,22.7,83.7,23.3,127.6c0.1,4.4-1,5.5-5.5,5.5C1358.3,1143.3,1310.8,1143.4,1263.3,1143.4z"/>
		<path class="st0" d="M1002.2,1221.2c-41.8,0-75.7-33.6-76-75.4c-0.3-40.9,34.3-75.7,75.3-75.7c42.5,0,76.7,33.8,76.6,75.8
			C1078,1187.5,1044.1,1221.1,1002.2,1221.2z"/>
	</g>
</g>
</svg>
